<?xml version="1.0" encoding="UTF-8" standalone="no"?>
<svg viewBox="0 0 487.616 487.615" version="1.1" xmlns="http://www.w3.org/2000/svg" xmlns:svg="http://www.w3.org/2000/svg">
	<g>
		<path fill="#000" d="M198.244,123.023c15.939-1.472,28.321-15.203,28.321-31.264c0-17.288-14.1-31.387-31.387-31.387    s-31.386,14.1-31.386,31.387c0,5.271,1.471,10.667,3.923,15.203l11.184,157.367l115.182,0.031l47.244,110.692l62.025-24.324    l-9.605-22.871l-34.711,12.531l-45.711-105.531l-107.095,0.719l-1.47-19.929l77.528,0.031V186.19l-80.485-0.031L198.244,123.023z" />
		<path fill="#000" d="M314.086,348.709c-19.44,38.429-60.128,63.745-103.531,63.745c-63.747,0-115.74-51.991-115.74-115.738    c0-44.758,27.127-86.351,67.605-104.789l2.619,34.184c-23.941,15.085-38.7,42.308-38.7,70.84c0,46.244,37.717,83.961,83.96,83.961    c42.307,0,78.384-32.469,83.304-74.121L314.086,348.709z" />
		<path fill="#b7202e" d="M243.807,0c134.65,0,243.81,109.16,243.81,243.81s-109.16,243.81-243.81,243.81     c-134.65,0-243.81-109.16-243.81-243.81S109.156,0,243.807,0z M397.167,363.359c25.85-33.09,41.3-74.7,41.3-119.94     c0-107.72-87.33-195.05-195.05-195.05c-45.25,0-86.86,15.45-119.95,41.3c-12.6,9.85-23.95,21.2-33.8,33.8     c-25.85,33.09-41.29,74.7-41.29,119.95c0,107.72,87.32,195.04,195.04,195.04c45.24,0,86.86-15.45,119.95-41.3     C375.966,387.31,387.317,375.959,397.167,363.359z" />
		<path fill="#b7202e" d="M 397.165,123.473 123.474,397.161 c -12.602,-9.847 -23.957,-21.2 -33.803,-33.803 L 363.366,89.672 c 12.603,9.846 23.953,21.199 33.799,33.801 z" />
	</g>
</svg>
